<svg width="366" height="72" viewBox="0 0 366 72" fill="none" xmlns="http://www.w3.org/2000/svg">
<path d="M48.3064 14.3691C49.794 14.3691 51.232 13.7682 52.6205 12.5665C54.0089 11.2647 54.7031 9.96281 54.7031 8.66095C54.7031 7.05866 53.8106 5.85695 52.0254 5.0558V4.90559C46.4716 3.00287 40.7691 2.05151 34.9178 2.05151C25.0995 2.05151 16.9671 5.15594 10.5208 11.3648C4.17359 17.4735 1 25.8856 1 36.6009C1 44.5122 2.93391 51.9227 6.80172 58.8326C8.68604 62.3376 11.2646 65.1917 14.5374 67.3948C17.8101 69.598 21.1325 70.6996 24.5044 70.6996C29.959 70.6996 38.9343 68.0458 51.4304 62.7382C53.7114 61.2361 54.8519 59.4335 54.8519 57.3305C54.8519 54.8269 53.513 53.5751 50.8353 53.5751C50.4386 53.5751 46.9675 54.7268 40.422 57.03C33.8764 59.3333 29.364 60.485 26.8846 60.485C24.3061 60.485 21.8267 59.2332 19.4465 56.7296C14.5869 51.9227 12.1572 45.4135 12.1572 37.2017C12.1572 20.9785 20.1903 12.867 36.2566 12.867L48.3064 14.3691Z" fill="#1E1E1E"/>
<path fill-rule="evenodd" clip-rule="evenodd" d="M97.4269 2.20172C88.0053 2.20172 80.6168 4.85551 75.2614 10.1631C70.0051 15.4707 67.377 23.2318 67.377 33.4464C67.377 43.7611 70.0051 52.5737 75.2614 59.8841C80.5176 67.0944 87.3111 70.6996 95.6418 70.6996C103.377 70.6996 109.675 67.0944 114.535 59.8841C119.493 52.5737 121.973 44.0114 121.973 34.1974C121.973 24.3834 119.741 16.6223 115.278 10.9142C110.815 5.10587 104.865 2.20172 97.4269 2.20172ZM96.6831 59.7339C90.8318 59.7339 86.1706 56.9299 82.6995 51.3219C79.3275 45.814 77.6415 39.7554 77.6415 33.1459C77.6415 26.5365 79.2283 21.4793 82.4019 17.9743C85.5755 14.3691 90.0384 12.5665 95.7905 12.5665C101.443 12.5665 105.41 14.4192 107.691 18.1245C110.072 21.7296 111.262 27.6381 111.262 35.8498C111.262 43.9614 109.278 50.4707 105.311 55.3777C102.931 58.2818 100.055 59.7339 96.6831 59.7339Z" fill="#1E1E1E"/>
<path d="M213.114 66.1931C213.015 69.2976 214.453 70.8498 217.428 70.8498C221.792 70.8498 223.974 69.1974 223.974 65.8927L223.527 46.2146C226.502 44.1116 229.428 41.7582 232.304 39.1545C235.478 41.7582 238.106 44.4621 240.189 47.2661C242.172 49.6695 244.403 52.9742 246.883 57.1803C249.957 62.0873 252.288 65.5923 253.875 67.6953C255.561 69.6981 257.048 70.6996 258.338 70.6996C259.825 70.6996 261.065 70.1989 262.057 69.1974C263.048 68.196 263.544 66.8441 263.544 65.1416C263.544 63.1388 261.114 58.432 256.255 51.0215C251.395 43.2103 246.288 36.9013 240.932 32.0944C253.726 18.8755 260.123 9.86267 260.123 5.0558C260.123 2.55222 258.238 1.30043 254.47 1.30043C252.585 1.30043 250.949 2.35194 249.561 4.45494C245.792 10.1631 241.974 15.1202 238.106 19.3262C234.932 22.8312 229.974 27.3877 223.23 32.9957C223.23 18.3748 222.188 8.76109 220.106 4.15451C219.114 2.35194 217.775 1.45065 216.089 1.45065C214.701 1.45065 213.362 2.00144 212.073 3.10301C210.783 4.10444 210.139 5.0558 210.139 5.95709C210.139 7.35909 210.337 9.31188 210.734 11.8155C211.13 14.2189 211.626 21.329 212.221 33.1459C212.816 44.3619 213.114 52.7239 213.114 58.2318V66.1931Z" fill="#1E1E1E"/>
<path d="M294.069 71C299.822 71 304.78 70.6495 308.946 69.9485C311.028 69.4478 312.07 67.8455 312.07 65.1416C312.07 61.7368 310.433 60.0343 307.161 60.0343L285.144 61.3863C284.846 55.1774 284.697 49.8698 284.697 45.4635C284.697 41.4578 285.243 34.3476 286.334 24.1331C287.326 16.2217 287.871 10.4135 287.97 6.70816C287.97 5.10587 287.375 3.85408 286.185 2.9528C284.995 2.05151 283.458 1.60086 281.573 1.60086C277.805 1.60086 275.921 2.85265 275.921 5.35623L274.879 48.9185C274.879 57.8312 275.177 64.3906 275.772 68.5966C276.069 70.0987 277.458 70.8498 279.937 70.8498L294.069 71Z" fill="#1E1E1E"/>
<path d="M361.132 1C360.636 1 359.992 1.25036 359.198 1.75108C357.711 2.55222 355.43 5.35623 352.355 10.1631L347.744 17.6738L342.091 26.3863C340.603 24.1831 338.669 20.9785 336.289 16.7725C330.438 6.65809 326.818 1.60086 325.429 1.60086C323.446 1.60086 321.76 2.65237 320.371 4.75537C319.776 5.65666 319.479 6.4578 319.479 7.1588C319.479 7.75966 319.628 8.31045 319.925 8.81116C326.768 21.4292 332.322 30.5422 336.586 36.1502C336.884 38.8541 337.033 41.5079 337.033 44.1116L336.884 60.3348C336.884 65.8426 337.429 69.1474 338.52 70.2489C338.917 70.6495 339.562 70.8498 340.454 70.8498C343.529 70.8498 345.363 69.5479 345.958 66.9442C346.553 64.3405 346.851 58.5322 346.851 49.5193V36.4506C348.239 34.0472 349.777 31.7439 351.463 29.5408L357.116 20.9785L360.983 14.97C363.661 10.5637 365 7.10873 365 4.60516C365 2.50215 363.711 1.30044 361.132 1Z" fill="#1E1E1E"/>
<path fill-rule="evenodd" clip-rule="evenodd" d="M191.415 3.5565C192.751 2.22775 194.901 2.24392 196.216 3.59262C197.532 4.94133 197.516 7.11184 196.181 8.44059L181.459 23.0859H201.145C201.301 24.4848 201.382 25.9077 201.382 27.3501C201.382 47.6033 185.5 64.0219 165.909 64.0219C146.318 64.0219 130.437 47.6033 130.437 27.3501C130.437 25.9077 130.517 24.4848 130.674 23.0859H171.808C171.878 23.0001 171.954 22.917 172.035 22.837L191.415 3.5565ZM137.302 29.9138C138.557 45.3217 151.018 57.1939 165.909 57.1939C180.8 57.1939 193.261 45.3217 194.516 29.9138H137.302Z" fill="#FC748D"/>
<path d="M48.3064 14.3691C49.794 14.3691 51.232 13.7682 52.6205 12.5665C54.0089 11.2647 54.7031 9.96281 54.7031 8.66095C54.7031 7.05866 53.8106 5.85695 52.0254 5.0558V4.90559C46.4716 3.00287 40.7691 2.05151 34.9178 2.05151C25.0995 2.05151 16.9671 5.15594 10.5208 11.3648C4.17359 17.4735 1 25.8856 1 36.6009C1 44.5122 2.93391 51.9227 6.80172 58.8326C8.68604 62.3376 11.2646 65.1917 14.5374 67.3948C17.8101 69.598 21.1325 70.6996 24.5044 70.6996C29.959 70.6996 38.9343 68.0458 51.4304 62.7382C53.7114 61.2361 54.8519 59.4335 54.8519 57.3305C54.8519 54.8269 53.513 53.5751 50.8353 53.5751C50.4386 53.5751 46.9675 54.7268 40.422 57.03C33.8764 59.3333 29.364 60.485 26.8846 60.485C24.3061 60.485 21.8267 59.2332 19.4465 56.7296C14.5869 51.9227 12.1572 45.4135 12.1572 37.2017C12.1572 20.9785 20.1903 12.867 36.2566 12.867L48.3064 14.3691Z" stroke="#1E1E1E" stroke-width="0.2"/>
<path fill-rule="evenodd" clip-rule="evenodd" d="M97.4269 2.20172C88.0053 2.20172 80.6168 4.85551 75.2614 10.1631C70.0051 15.4707 67.377 23.2318 67.377 33.4464C67.377 43.7611 70.0051 52.5737 75.2614 59.8841C80.5176 67.0944 87.3111 70.6996 95.6418 70.6996C103.377 70.6996 109.675 67.0944 114.535 59.8841C119.493 52.5737 121.973 44.0114 121.973 34.1974C121.973 24.3834 119.741 16.6223 115.278 10.9142C110.815 5.10587 104.865 2.20172 97.4269 2.20172ZM96.6831 59.7339C90.8318 59.7339 86.1706 56.9299 82.6995 51.3219C79.3275 45.814 77.6415 39.7554 77.6415 33.1459C77.6415 26.5365 79.2283 21.4793 82.4019 17.9743C85.5755 14.3691 90.0384 12.5665 95.7905 12.5665C101.443 12.5665 105.41 14.4192 107.691 18.1245C110.072 21.7296 111.262 27.6381 111.262 35.8498C111.262 43.9614 109.278 50.4707 105.311 55.3777C102.931 58.2818 100.055 59.7339 96.6831 59.7339Z" stroke="#1E1E1E" stroke-width="0.2"/>
<path d="M213.114 66.1931C213.015 69.2976 214.453 70.8498 217.428 70.8498C221.792 70.8498 223.974 69.1974 223.974 65.8927L223.527 46.2146C226.502 44.1116 229.428 41.7582 232.304 39.1545C235.478 41.7582 238.106 44.4621 240.189 47.2661C242.172 49.6695 244.403 52.9742 246.883 57.1803C249.957 62.0873 252.288 65.5923 253.875 67.6953C255.561 69.6981 257.048 70.6996 258.338 70.6996C259.825 70.6996 261.065 70.1989 262.057 69.1974C263.048 68.196 263.544 66.8441 263.544 65.1416C263.544 63.1388 261.114 58.432 256.255 51.0215C251.395 43.2103 246.288 36.9013 240.932 32.0944C253.726 18.8755 260.123 9.86267 260.123 5.0558C260.123 2.55222 258.238 1.30043 254.47 1.30043C252.585 1.30043 250.949 2.35194 249.561 4.45494C245.792 10.1631 241.974 15.1202 238.106 19.3262C234.932 22.8312 229.974 27.3877 223.23 32.9957C223.23 18.3748 222.188 8.76109 220.106 4.15451C219.114 2.35194 217.775 1.45065 216.089 1.45065C214.701 1.45065 213.362 2.00144 212.073 3.10301C210.783 4.10444 210.139 5.0558 210.139 5.95709C210.139 7.35909 210.337 9.31188 210.734 11.8155C211.13 14.2189 211.626 21.329 212.221 33.1459C212.816 44.3619 213.114 52.7239 213.114 58.2318V66.1931Z" stroke="#1E1E1E" stroke-width="0.2"/>
<path d="M294.069 71C299.822 71 304.78 70.6495 308.946 69.9485C311.028 69.4478 312.07 67.8455 312.07 65.1416C312.07 61.7368 310.433 60.0343 307.161 60.0343L285.144 61.3863C284.846 55.1774 284.697 49.8698 284.697 45.4635C284.697 41.4578 285.243 34.3476 286.334 24.1331C287.326 16.2217 287.871 10.4135 287.97 6.70816C287.97 5.10587 287.375 3.85408 286.185 2.9528C284.995 2.05151 283.458 1.60086 281.573 1.60086C277.805 1.60086 275.921 2.85265 275.921 5.35623L274.879 48.9185C274.879 57.8312 275.177 64.3906 275.772 68.5966C276.069 70.0987 277.458 70.8498 279.937 70.8498L294.069 71Z" stroke="#1E1E1E" stroke-width="0.2"/>
<path d="M361.132 1C360.636 1 359.992 1.25036 359.198 1.75108C357.711 2.55222 355.43 5.35623 352.355 10.1631L347.744 17.6738L342.091 26.3863C340.603 24.1831 338.669 20.9785 336.289 16.7725C330.438 6.65809 326.818 1.60086 325.429 1.60086C323.446 1.60086 321.76 2.65237 320.371 4.75537C319.776 5.65666 319.479 6.4578 319.479 7.1588C319.479 7.75966 319.628 8.31045 319.925 8.81116C326.768 21.4292 332.322 30.5422 336.586 36.1502C336.884 38.8541 337.033 41.5079 337.033 44.1116L336.884 60.3348C336.884 65.8426 337.429 69.1474 338.52 70.2489C338.917 70.6495 339.562 70.8498 340.454 70.8498C343.529 70.8498 345.363 69.5479 345.958 66.9442C346.553 64.3405 346.851 58.5322 346.851 49.5193V36.4506C348.239 34.0472 349.777 31.7439 351.463 29.5408L357.116 20.9785L360.983 14.97C363.661 10.5637 365 7.10873 365 4.60516C365 2.50215 363.711 1.30044 361.132 1Z" stroke="#1E1E1E" stroke-width="0.2"/>
<path fill-rule="evenodd" clip-rule="evenodd" d="M191.415 3.5565C192.751 2.22775 194.901 2.24392 196.216 3.59262C197.532 4.94133 197.516 7.11184 196.181 8.44059L181.459 23.0859H201.145C201.301 24.4848 201.382 25.9077 201.382 27.3501C201.382 47.6033 185.5 64.0219 165.909 64.0219C146.318 64.0219 130.437 47.6033 130.437 27.3501C130.437 25.9077 130.517 24.4848 130.674 23.0859H171.808C171.878 23.0001 171.954 22.917 172.035 22.837L191.415 3.5565ZM137.302 29.9138C138.557 45.3217 151.018 57.1939 165.909 57.1939C180.8 57.1939 193.261 45.3217 194.516 29.9138H137.302Z" stroke="#1E1E1E" stroke-width="0.2"/>
</svg>
