<svg width="283" height="58" viewBox="0 0 283 58" fill="none" xmlns="http://www.w3.org/2000/svg">
<path fill-rule="evenodd" clip-rule="evenodd" d="M24.2532 4.42865C32.2159 4.42865 36.0146 5.80807 39.521 7.18749L41.6396 3.04924C38.2792 1.30682 31.9967 0 24.4724 0C11.0308 0 2.04545 4.21085 2.04545 14.6654C2.04545 23.3775 6.79382 25.9911 22.1347 29.0404C37.4756 32.0896 40.909 33.832 40.909 41.6729C40.909 51.9096 29.7321 52.8534 21.6964 52.8534C15.7061 52.8534 5.7711 51.474 0.949674 47.9166L0 52.926C5.84415 56.5561 15.7792 57.7177 21.2581 57.7177C30.0243 57.7177 46.0227 56.9917 46.0227 41.6729C46.0227 31.2184 41.7857 28.3869 23.0113 24.4665C11.323 21.9981 7.15908 20.1104 7.15908 14.2298C7.15908 9.14771 9.93505 4.42865 24.2532 4.42865ZM61.5182 5.22726H89.1318V0.726009H56.6237V56.9917H89.1318V52.4904H61.5182V25.1925H84.8948V20.6913H61.5182V5.22726ZM107.176 5.22726H134.789V0.726009H102.281V56.9917H134.789V52.4904H107.176V25.1925H130.552V20.6913H107.176V5.22726ZM188.263 29.4034C188.263 10.5997 177.232 0.726009 156.193 0.726009H147.939V56.9917H156.193C177.232 56.9917 188.263 47.481 188.263 29.4034ZM183.296 29.5486C183.296 44.5769 173.945 52.4904 156.193 52.4904H152.833V5.22726H156.193C173.945 5.22726 183.296 13.5764 183.296 29.5486ZM214.308 52.4904H202.985V0.726009H198.09V56.9917H214.308V52.4904ZM246.943 31.961L248.463 27.9892C243.984 12.8916 251.006 5.59062 258.17 2.65951C266.153 0.428185 272.084 0.000415546 280.97 1.12098C281.629 1.20418 282.306 1.29592 283 1.3961L282.196 3.36722L278.476 12.4902L274.836 21.4172C270.201 32.785 256.925 36.2996 249.863 30.0031L248.849 32.6515L248.579 33.4982V33.7453V56.99V57.9983H248.072V58H246.043V49.9515V44.9449V35.2245L244.534 32.8596L244.353 32.576C238.949 37.7736 232.687 33.8495 229.556 30.5784C226.616 26.7386 224.973 23.5758 223.482 18.7008C223.283 18.0486 223.086 17.3658 222.889 16.6467L224.948 16.6468L229.818 16.6468L235.39 16.6468C242.684 16.6468 247.613 22.4102 245.581 30.7343L246.248 31.7796L246.748 32.5644L246.924 32.0148L246.932 31.9876L246.943 31.961ZM261.984 30.5709C257.719 31.6894 253.498 30.8037 250.728 28.0145L253.695 23.3652L254.981 22.021C256.126 23.1212 257.498 23.9635 259.005 24.4882L259.223 24.564L259.363 24.613C261.033 25.1945 262.789 25.4915 264.559 25.4915H264.756C265.936 25.4915 267.112 25.3552 268.261 25.0854C268.806 24.9572 269.143 24.414 269.014 23.8721C268.886 23.3301 268.339 22.9946 267.794 23.1228C266.798 23.3567 265.779 23.4748 264.756 23.4748H264.559C263.018 23.4748 261.488 23.2162 260.034 22.7098L259.894 22.6608L259.676 22.5849C258.456 22.1601 257.344 21.48 256.414 20.5924L263.235 14.8912C263.341 14.9642 263.451 15.0307 263.565 15.0904L264.405 15.529C264.792 15.731 265.193 15.9045 265.605 16.0481L265.983 16.1799C267.132 16.58 268.341 16.7844 269.559 16.7844H272.059C272.619 16.7844 273.073 16.333 273.073 15.7761C273.073 15.2192 272.619 14.7677 272.059 14.7677H269.559C268.57 14.7677 267.588 14.6017 266.654 14.2767L266.276 14.1449C265.958 14.034 265.648 13.9 265.349 13.7439L264.996 13.5594L272.566 8.81372L275.865 7.09078L279.198 5.34936L279.255 5.31944L279.259 5.31718L276.652 11.7089L273.013 20.634C270.827 25.9966 266.496 29.3877 261.984 30.5709ZM278.197 3.59417L279.082 2.97776C271.348 2.14056 265.93 2.62917 258.77 4.61994C255.465 5.99389 252.364 8.3233 250.597 11.9107C249.04 15.0718 248.386 19.4803 249.877 25.5823L252.034 22.2017L252.088 22.1183L252.156 22.0468L253.653 20.4826C253.521 20.2766 253.402 20.0625 253.297 19.8414L253.185 19.6076C252.872 18.9546 252.71 18.2405 252.71 17.5174V15.776C252.71 13.9177 253.084 12.078 253.809 10.3651L254.397 8.97566C254.614 8.46235 255.209 8.22131 255.726 8.43728C256.242 8.65325 256.485 9.24445 256.267 9.75776L255.679 11.1472C255.059 12.6126 254.739 14.1863 254.739 15.776V17.5174C254.739 17.9409 254.834 18.359 255.017 18.7414L255.129 18.9752L255.148 19.0151L262.026 13.2663C261.928 12.9607 261.877 12.6394 261.877 12.3129V11.4225V11.3647C261.877 9.55454 262.205 7.7592 262.846 6.06468C263.043 5.54336 263.628 5.2795 264.152 5.47533C264.677 5.67117 264.942 6.25254 264.745 6.77387C264.19 8.24165 263.906 9.79675 263.906 11.3647V11.4225V11.8582L271.518 7.0868L271.551 7.06559L271.587 7.0471L274.92 5.30568L278.197 3.59417ZM242.55 21.9819C243.684 23.562 244.31 25.7914 243.948 28.5993L241.94 27.0258C242.137 26.4913 242.238 25.9254 242.238 25.3539V23.6125C242.238 23.0556 241.784 22.6042 241.224 22.6042C240.663 22.6042 240.209 23.0556 240.209 23.6125V25.3539C240.209 25.477 240.201 25.5997 240.185 25.7211L238.473 24.5282L236.753 23.3303C237.069 22.6858 237.238 21.9727 237.238 21.2429V21.0004C237.238 20.4435 236.784 19.992 236.223 19.992C235.663 19.992 235.209 20.4435 235.209 21.0004V21.2429C235.209 21.5537 235.156 21.8592 235.054 22.1474L233.472 21.0453L233.413 21.0037L233.347 20.971L228.989 18.7828L228.93 18.7531L228.867 18.7313L228.78 18.7009L229.861 18.7009L235.433 18.7008C238.658 18.7008 241.124 19.996 242.55 21.9819ZM239.343 27.5971L237.308 26.1796L235.494 24.9162C235.06 25.2711 234.566 25.5484 234.033 25.734L232.392 26.3055C231.863 26.4897 231.284 26.2129 231.099 25.6874C230.914 25.1618 231.192 24.5865 231.721 24.4023L233.362 23.8307C233.484 23.7882 233.603 23.7373 233.717 23.6786L232.367 22.7384L228.133 20.6126L225.94 19.8489C227.209 23.5122 228.669 26.1263 231.036 29.2326C232.547 30.7876 234.728 32.3669 236.999 32.8763C238.936 33.3105 241.091 33.0158 243.227 30.812L242.96 30.3927L240.959 28.8246C240.906 28.8872 240.851 28.9483 240.794 29.0077C240.353 29.468 239.809 29.8175 239.206 30.0276L238.427 30.2989C237.634 30.5749 236.801 30.7158 235.961 30.7158H235.39C234.83 30.7158 234.376 30.2644 234.376 29.7075C234.376 29.1506 234.83 28.6992 235.39 28.6992H235.961C236.572 28.6992 237.179 28.5966 237.756 28.3957L238.535 28.1244C238.834 28.02 239.105 27.8464 239.323 27.6178L239.343 27.5971Z" fill="#CC806F"/>
</svg>
