<svg width="73" height="18" viewBox="0 0 73 18" fill="none" xmlns="http://www.w3.org/2000/svg">
<path fill-rule="evenodd" clip-rule="evenodd" d="M27 0C27.1993 0 27.3795 0.118342 27.4588 0.301196L33.9588 15.3012C34.0686 15.5546 33.9522 15.849 33.6988 15.9588C33.4454 16.0686 33.151 15.9522 33.0412 15.6988L27 1.75752L20.9588 15.6988C20.849 15.9522 20.5546 16.0686 20.3012 15.9588C20.0478 15.849 19.9314 15.5546 20.0412 15.3012L26.5412 0.301196C26.6205 0.118342 26.8007 0 27 0ZM51 0C51.2761 0 51.5 0.223858 51.5 0.5V15.1828C51.5 15.7694 50.7449 16.0074 50.4085 15.5268L41 2.08618V15.5C41 15.7761 40.7761 16 40.5 16C40.2239 16 40 15.7761 40 15.5V0.817236C40 0.230609 40.7551 -0.00742435 41.0915 0.473159L50.5 13.9138V0.5C50.5 0.223858 50.7239 0 51 0ZM71.5 8C71.5 11.4668 69.027 14.2036 66 14.4775V11.5C66 11.2239 65.7761 11 65.5 11C65.2239 11 65 11.2239 65 11.5V14.4775C61.973 14.2036 59.5 11.4668 59.5 8C59.5 4.34405 62.2502 1.5 65.5 1.5C68.7498 1.5 71.5 4.34405 71.5 8ZM72.5 8C72.5 11.962 69.6326 15.2065 66 15.4812V17.5C66 17.7761 65.7761 18 65.5 18C65.2239 18 65 17.7761 65 17.5V15.4812C61.3674 15.2065 58.5 11.962 58.5 8C58.5 3.85786 61.634 0.5 65.5 0.5C69.366 0.5 72.5 3.85786 72.5 8ZM0 1C0 0.723858 0.223858 0.5 0.5 0.5H9.39023C10.5579 0.5 11.6673 1.01025 12.4273 1.89683C13.7112 3.39479 13.7112 5.60521 12.4273 7.10317C12.1132 7.46952 11.7395 7.77162 11.3267 8C11.7395 8.22839 12.1132 8.53048 12.4273 8.89683C13.7112 10.3948 13.7112 12.6052 12.4273 14.1032C11.6673 14.9897 10.5579 15.5 9.39023 15.5H0.5C0.223858 15.5 0 15.2761 0 15C0 14.7239 0.223858 14.5 0.5 14.5H9.39023C10.266 14.5 11.0981 14.1173 11.668 13.4524C12.631 12.3289 12.631 10.6711 11.668 9.54763C11.0981 8.88269 10.266 8.5 9.39023 8.5H0.5C0.223858 8.5 0 8.27614 0 8C0 7.72386 0.223858 7.5 0.5 7.5H9.39023C10.266 7.5 11.0981 7.11731 11.668 6.45237C12.631 5.3289 12.631 3.6711 11.668 2.54763C11.0981 1.88269 10.266 1.5 9.39023 1.5H0.5C0.223858 1.5 0 1.27614 0 1Z" fill="black"/>
</svg>
