<svg width="100" height="100" viewBox="0 0 100 100" fill="none" xmlns="http://www.w3.org/2000/svg">
<rect width="100" height="100" fill="white"/>
<path d="M47.696 29.576C47.696 29.688 47.688 29.808 47.672 29.936C47.656 30.048 47.632 30.168 47.6 30.296C47.488 31 47.392 31.72 47.312 32.456C47.248 33.176 47.152 33.888 47.024 34.592C47.024 34.672 46.992 34.744 46.928 34.808C46.816 34.904 46.68 34.952 46.52 34.952C45.736 34.952 44.952 34.944 44.168 34.928C43.384 34.912 42.592 34.904 41.792 34.904C40.816 34.904 39.84 34.904 38.864 34.904C37.904 34.904 36.936 34.92 35.96 34.952C35.416 34.968 34.88 34.984 34.352 35C33.824 35.032 33.288 35.048 32.744 35.048C32.552 35.048 32.456 34.936 32.456 34.712C32.456 34.488 32.568 34.376 32.792 34.376C32.952 34.376 33.104 34.384 33.248 34.4C33.408 34.4 33.56 34.4 33.704 34.4C33.928 34.4 34.152 34.36 34.376 34.28C34.616 34.184 34.736 34.008 34.736 33.752V19.568C34.736 19.248 34.728 18.984 34.712 18.776C34.696 18.552 34.616 18.384 34.472 18.272C34.344 18.16 34.096 18.104 33.728 18.104C33.568 18.104 33.416 18.112 33.272 18.128C33.128 18.144 32.976 18.152 32.816 18.152C32.688 18.152 32.608 18.12 32.576 18.056C32.544 17.976 32.528 17.88 32.528 17.768C32.528 17.672 32.536 17.592 32.552 17.528C32.584 17.448 32.656 17.408 32.768 17.408C33.296 17.408 33.816 17.416 34.328 17.432C34.856 17.448 35.384 17.456 35.912 17.456C36.52 17.456 37.136 17.448 37.76 17.432C38.384 17.416 39 17.408 39.608 17.408C39.72 17.408 39.784 17.448 39.8 17.528C39.832 17.592 39.848 17.664 39.848 17.744C39.848 17.808 39.832 17.888 39.8 17.984C39.784 18.064 39.72 18.104 39.608 18.104C39.4 18.104 39.192 18.104 38.984 18.104C38.792 18.088 38.592 18.08 38.384 18.08C38.128 18.08 37.872 18.112 37.616 18.176C37.36 18.24 37.232 18.44 37.232 18.776C37.232 19.336 37.224 19.896 37.208 20.456C37.208 21.016 37.208 21.576 37.208 22.136V29.216C37.208 29.92 37.208 30.632 37.208 31.352C37.224 32.072 37.232 32.784 37.232 33.488C37.232 33.76 37.344 33.96 37.568 34.088C37.792 34.2 38.048 34.264 38.336 34.28C38.624 34.296 38.864 34.304 39.056 34.304C39.76 34.304 40.464 34.288 41.168 34.256C41.872 34.224 42.568 34.152 43.256 34.04C43.704 33.96 44.128 33.808 44.528 33.584C44.944 33.344 45.304 33.048 45.608 32.696C46.008 32.232 46.312 31.736 46.52 31.208C46.728 30.664 46.936 30.12 47.144 29.576C47.192 29.464 47.248 29.4 47.312 29.384C47.376 29.368 47.456 29.36 47.552 29.36C47.6 29.36 47.632 29.392 47.648 29.456C47.68 29.504 47.696 29.544 47.696 29.576ZM59.5981 27.872C59.0861 26.432 58.5741 24.992 58.0621 23.552C57.5501 22.096 57.0381 20.648 56.5261 19.208C56.0301 20.648 55.5261 22.088 55.0141 23.528C54.5021 24.968 53.9981 26.416 53.5021 27.872H59.5981ZM66.3661 34.64C66.3661 34.736 66.3501 34.824 66.3181 34.904C66.3021 34.968 66.2461 35 66.1501 35C66.0381 35 65.7581 34.992 65.3101 34.976C64.8781 34.96 64.5021 34.952 64.1821 34.952C63.6861 34.952 63.1901 34.952 62.6941 34.952C62.2141 34.952 61.7261 34.968 61.2301 35C60.9741 35.016 60.7101 35.024 60.4381 35.024C60.1821 35.04 59.9261 35.048 59.6701 35.048C59.5901 35.048 59.5341 35.024 59.5021 34.976C59.4861 34.912 59.4781 34.848 59.4781 34.784L59.5021 34.592C59.5021 34.544 59.5181 34.496 59.5501 34.448C59.5821 34.384 59.6301 34.352 59.6941 34.352H60.8701C61.0141 34.352 61.1741 34.32 61.3501 34.256C61.5421 34.192 61.6381 34.072 61.6381 33.896C61.6381 33.848 61.5821 33.664 61.4701 33.344C61.3581 33.008 61.2221 32.608 61.0621 32.144C60.9021 31.664 60.7341 31.184 60.5581 30.704C60.3821 30.224 60.2301 29.8 60.1021 29.432C59.9741 29.048 59.8861 28.8 59.8381 28.688H53.2861C53.2381 28.832 53.1421 29.096 52.9981 29.48C52.8541 29.848 52.6941 30.272 52.5181 30.752C52.3581 31.232 52.1901 31.704 52.0141 32.168C51.8541 32.632 51.7181 33.032 51.6061 33.368C51.5101 33.688 51.4621 33.888 51.4621 33.968C51.4621 34.192 51.5821 34.336 51.8221 34.4C52.0621 34.464 52.2621 34.496 52.4221 34.496C52.5821 34.496 52.7261 34.496 52.8541 34.496C52.9821 34.496 53.0861 34.488 53.1661 34.472C53.1981 34.472 53.2541 34.472 53.3341 34.472C53.4301 34.456 53.4861 34.448 53.5021 34.448C53.5981 34.448 53.6541 34.504 53.6701 34.616C53.7021 34.728 53.7101 34.816 53.6941 34.88C53.6781 34.944 53.6381 34.984 53.5741 35C53.5261 35 53.4701 35 53.4061 35C52.9421 35 52.4701 34.992 51.9901 34.976C51.5101 34.96 51.0381 34.952 50.5741 34.952C50.2221 34.952 49.8781 34.96 49.5421 34.976C49.2061 34.992 48.8621 35 48.5101 35C48.3661 35 48.2941 34.92 48.2941 34.76C48.2941 34.536 48.4061 34.424 48.6301 34.424C48.7101 34.424 48.8061 34.432 48.9181 34.448C49.0301 34.448 49.1501 34.448 49.2781 34.448C49.4541 34.448 49.6301 34.4 49.8061 34.304C49.9981 34.192 50.1581 34 50.2861 33.728C50.3661 33.584 50.5261 33.2 50.7661 32.576C51.0061 31.952 51.3021 31.176 51.6541 30.248C52.0061 29.304 52.3741 28.296 52.7581 27.224C53.1581 26.136 53.5501 25.056 53.9341 23.984C54.3181 22.912 54.6621 21.92 54.9661 21.008C55.2861 20.096 55.5421 19.344 55.7341 18.752C55.9261 18.144 56.0221 17.784 56.0221 17.672C56.0221 17.64 55.9981 17.6 55.9501 17.552C55.9021 17.488 55.8781 17.448 55.8781 17.432C55.8781 17.368 55.9021 17.328 55.9501 17.312C56.1101 17.28 56.2781 17.256 56.4541 17.24C56.6301 17.224 56.7981 17.208 56.9581 17.192C57.1661 17.16 57.3741 17.136 57.5821 17.12C57.7901 17.088 57.9981 17.064 58.2061 17.048L64.4221 33.848C64.4861 34.008 64.6061 34.136 64.7821 34.232C64.9741 34.312 65.1501 34.352 65.3101 34.352C65.4541 34.352 65.5981 34.352 65.7421 34.352C65.9021 34.336 66.0621 34.328 66.2221 34.328C66.2861 34.328 66.3261 34.368 66.3421 34.448C66.3581 34.528 66.3661 34.592 66.3661 34.64Z" fill="black"/>
<path d="M13.0208 64.26H15.4608V65H12.1108V58.03H13.0208V64.26ZM21.4272 62.05C21.4272 62.2233 21.4172 62.4067 21.3972 62.6H17.0172C17.0506 63.14 17.2339 63.5633 17.5672 63.87C17.9072 64.17 18.3172 64.32 18.7972 64.32C19.1906 64.32 19.5172 64.23 19.7772 64.05C20.0439 63.8633 20.2306 63.6167 20.3372 63.31H21.3172C21.1706 63.8367 20.8772 64.2667 20.4372 64.6C19.9972 64.9267 19.4506 65.09 18.7972 65.09C18.2772 65.09 17.8106 64.9733 17.3972 64.74C16.9906 64.5067 16.6706 64.1767 16.4372 63.75C16.2039 63.3167 16.0872 62.8167 16.0872 62.25C16.0872 61.6833 16.2006 61.1867 16.4272 60.76C16.6539 60.3333 16.9706 60.0067 17.3772 59.78C17.7906 59.5467 18.2639 59.43 18.7972 59.43C19.3172 59.43 19.7772 59.5433 20.1772 59.77C20.5772 59.9967 20.8839 60.31 21.0972 60.71C21.3172 61.1033 21.4272 61.55 21.4272 62.05ZM20.4872 61.86C20.4872 61.5133 20.4106 61.2167 20.2572 60.97C20.1039 60.7167 19.8939 60.5267 19.6272 60.4C19.3672 60.2667 19.0772 60.2 18.7572 60.2C18.2972 60.2 17.9039 60.3467 17.5772 60.64C17.2572 60.9333 17.0739 61.34 17.0272 61.86H20.4872ZM25.0184 65.09C24.5051 65.09 24.0384 64.9733 23.6184 64.74C23.2051 64.5067 22.8784 64.1767 22.6384 63.75C22.4051 63.3167 22.2884 62.8167 22.2884 62.25C22.2884 61.69 22.4084 61.1967 22.6484 60.77C22.8951 60.3367 23.2284 60.0067 23.6484 59.78C24.0684 59.5467 24.5384 59.43 25.0584 59.43C25.5784 59.43 26.0484 59.5467 26.4684 59.78C26.8884 60.0067 27.2184 60.3333 27.4584 60.76C27.7051 61.1867 27.8284 61.6833 27.8284 62.25C27.8284 62.8167 27.7017 63.3167 27.4484 63.75C27.2017 64.1767 26.8651 64.5067 26.4384 64.74C26.0117 64.9733 25.5384 65.09 25.0184 65.09ZM25.0184 64.29C25.3451 64.29 25.6517 64.2133 25.9384 64.06C26.2251 63.9067 26.4551 63.6767 26.6284 63.37C26.8084 63.0633 26.8984 62.69 26.8984 62.25C26.8984 61.81 26.8117 61.4367 26.6384 61.13C26.4651 60.8233 26.2384 60.5967 25.9584 60.45C25.6784 60.2967 25.3751 60.22 25.0484 60.22C24.7151 60.22 24.4084 60.2967 24.1284 60.45C23.8551 60.5967 23.6351 60.8233 23.4684 61.13C23.3017 61.4367 23.2184 61.81 23.2184 62.25C23.2184 62.6967 23.2984 63.0733 23.4584 63.38C23.6251 63.6867 23.8451 63.9167 24.1184 64.07C24.3917 64.2167 24.6917 64.29 25.0184 64.29ZM31.6949 59.42C32.3615 59.42 32.9015 59.6233 33.3149 60.03C33.7282 60.43 33.9349 61.01 33.9349 61.77V65H33.0349V61.9C33.0349 61.3533 32.8982 60.9367 32.6249 60.65C32.3515 60.3567 31.9782 60.21 31.5049 60.21C31.0249 60.21 30.6415 60.36 30.3549 60.66C30.0749 60.96 29.9349 61.3967 29.9349 61.97V65H29.0249V59.52H29.9349V60.3C30.1149 60.02 30.3582 59.8033 30.6649 59.65C30.9782 59.4967 31.3215 59.42 31.6949 59.42ZM35.8914 58.63C35.718 58.63 35.5714 58.57 35.4514 58.45C35.3314 58.33 35.2714 58.1833 35.2714 58.01C35.2714 57.8367 35.3314 57.69 35.4514 57.57C35.5714 57.45 35.718 57.39 35.8914 57.39C36.058 57.39 36.198 57.45 36.3114 57.57C36.4314 57.69 36.4914 57.8367 36.4914 58.01C36.4914 58.1833 36.4314 58.33 36.3114 58.45C36.198 58.57 36.058 58.63 35.8914 58.63ZM36.3314 59.52V65H35.4214V59.52H36.3314ZM42.8823 62.05C42.8823 62.2233 42.8723 62.4067 42.8523 62.6H38.4723C38.5056 63.14 38.689 63.5633 39.0223 63.87C39.3623 64.17 39.7723 64.32 40.2523 64.32C40.6456 64.32 40.9723 64.23 41.2323 64.05C41.499 63.8633 41.6856 63.6167 41.7923 63.31H42.7723C42.6256 63.8367 42.3323 64.2667 41.8923 64.6C41.4523 64.9267 40.9056 65.09 40.2523 65.09C39.7323 65.09 39.2656 64.9733 38.8523 64.74C38.4456 64.5067 38.1256 64.1767 37.8923 63.75C37.659 63.3167 37.5423 62.8167 37.5423 62.25C37.5423 61.6833 37.6556 61.1867 37.8823 60.76C38.109 60.3333 38.4256 60.0067 38.8323 59.78C39.2456 59.5467 39.719 59.43 40.2523 59.43C40.7723 59.43 41.2323 59.5433 41.6323 59.77C42.0323 59.9967 42.339 60.31 42.5523 60.71C42.7723 61.1033 42.8823 61.55 42.8823 62.05ZM41.9423 61.86C41.9423 61.5133 41.8656 61.2167 41.7123 60.97C41.559 60.7167 41.349 60.5267 41.0823 60.4C40.8223 60.2667 40.5323 60.2 40.2123 60.2C39.7523 60.2 39.359 60.3467 39.0323 60.64C38.7123 60.9333 38.529 61.34 38.4823 61.86H41.9423ZM50.8695 63.45H47.8295L47.2695 65H46.3095L48.8295 58.07H49.8795L52.3895 65H51.4295L50.8695 63.45ZM50.6095 62.71L49.3495 59.19L48.0895 62.71H50.6095ZM54.3978 57.6V65H53.4878V57.6H54.3978ZM62.5387 59.42C62.9654 59.42 63.3454 59.51 63.6787 59.69C64.012 59.8633 64.2754 60.1267 64.4687 60.48C64.662 60.8333 64.7587 61.2633 64.7587 61.77V65H63.8587V61.9C63.8587 61.3533 63.722 60.9367 63.4487 60.65C63.182 60.3567 62.8187 60.21 62.3587 60.21C61.8854 60.21 61.5087 60.3633 61.2287 60.67C60.9487 60.97 60.8087 61.4067 60.8087 61.98V65H59.9087V61.9C59.9087 61.3533 59.772 60.9367 59.4987 60.65C59.232 60.3567 58.8687 60.21 58.4087 60.21C57.9354 60.21 57.5587 60.3633 57.2787 60.67C56.9987 60.97 56.8587 61.4067 56.8587 61.98V65H55.9487V59.52H56.8587V60.31C57.0387 60.0233 57.2787 59.8033 57.5787 59.65C57.8854 59.4967 58.222 59.42 58.5887 59.42C59.0487 59.42 59.4554 59.5233 59.8087 59.73C60.162 59.9367 60.4254 60.24 60.5987 60.64C60.752 60.2533 61.0054 59.9533 61.3587 59.74C61.712 59.5267 62.1054 59.42 62.5387 59.42ZM71.2514 62.05C71.2514 62.2233 71.2414 62.4067 71.2214 62.6H66.8414C66.8748 63.14 67.0581 63.5633 67.3914 63.87C67.7314 64.17 68.1414 64.32 68.6214 64.32C69.0148 64.32 69.3414 64.23 69.6014 64.05C69.8681 63.8633 70.0548 63.6167 70.1614 63.31H71.1414C70.9948 63.8367 70.7014 64.2667 70.2614 64.6C69.8214 64.9267 69.2748 65.09 68.6214 65.09C68.1014 65.09 67.6348 64.9733 67.2214 64.74C66.8148 64.5067 66.4948 64.1767 66.2614 63.75C66.0281 63.3167 65.9114 62.8167 65.9114 62.25C65.9114 61.6833 66.0248 61.1867 66.2514 60.76C66.4781 60.3333 66.7948 60.0067 67.2014 59.78C67.6148 59.5467 68.0881 59.43 68.6214 59.43C69.1414 59.43 69.6014 59.5433 70.0014 59.77C70.4014 59.9967 70.7081 60.31 70.9214 60.71C71.1414 61.1033 71.2514 61.55 71.2514 62.05ZM70.3114 61.86C70.3114 61.5133 70.2348 61.2167 70.0814 60.97C69.9281 60.7167 69.7181 60.5267 69.4514 60.4C69.1914 60.2667 68.9014 60.2 68.5814 60.2C68.1214 60.2 67.7281 60.3467 67.4014 60.64C67.0814 60.9333 66.8981 61.34 66.8514 61.86H70.3114ZM72.9226 58.63C72.7493 58.63 72.6026 58.57 72.4826 58.45C72.3626 58.33 72.3026 58.1833 72.3026 58.01C72.3026 57.8367 72.3626 57.69 72.4826 57.57C72.6026 57.45 72.7493 57.39 72.9226 57.39C73.0893 57.39 73.2293 57.45 73.3426 57.57C73.4626 57.69 73.5226 57.8367 73.5226 58.01C73.5226 58.1833 73.4626 58.33 73.3426 58.45C73.2293 58.57 73.0893 58.63 72.9226 58.63ZM73.3626 59.52V65H72.4526V59.52H73.3626ZM74.5736 62.24C74.5736 61.68 74.6869 61.19 74.9136 60.77C75.1402 60.3433 75.4502 60.0133 75.8436 59.78C76.2436 59.5467 76.6902 59.43 77.1836 59.43C77.6102 59.43 78.0069 59.53 78.3736 59.73C78.7402 59.9233 79.0202 60.18 79.2136 60.5V57.6H80.1336V65H79.2136V63.97C79.0336 64.2967 78.7669 64.5667 78.4136 64.78C78.0602 64.9867 77.6469 65.09 77.1736 65.09C76.6869 65.09 76.2436 64.97 75.8436 64.73C75.4502 64.49 75.1402 64.1533 74.9136 63.72C74.6869 63.2867 74.5736 62.7933 74.5736 62.24ZM79.2136 62.25C79.2136 61.8367 79.1302 61.4767 78.9636 61.17C78.7969 60.8633 78.5702 60.63 78.2836 60.47C78.0036 60.3033 77.6936 60.22 77.3536 60.22C77.0136 60.22 76.7036 60.3 76.4236 60.46C76.1436 60.62 75.9202 60.8533 75.7536 61.16C75.5869 61.4667 75.5036 61.8267 75.5036 62.24C75.5036 62.66 75.5869 63.0267 75.7536 63.34C75.9202 63.6467 76.1436 63.8833 76.4236 64.05C76.7036 64.21 77.0136 64.29 77.3536 64.29C77.6936 64.29 78.0036 64.21 78.2836 64.05C78.5702 63.8833 78.7969 63.6467 78.9636 63.34C79.1302 63.0267 79.2136 62.6633 79.2136 62.25ZM81.3314 62.24C81.3314 61.68 81.4447 61.19 81.6714 60.77C81.898 60.3433 82.208 60.0133 82.6014 59.78C83.0014 59.5467 83.4447 59.43 83.9314 59.43C84.4114 59.43 84.828 59.5333 85.1814 59.74C85.5347 59.9467 85.798 60.2067 85.9714 60.52V59.52H86.8914V65H85.9714V63.98C85.7914 64.3 85.5214 64.5667 85.1614 64.78C84.808 64.9867 84.3947 65.09 83.9214 65.09C83.4347 65.09 82.9947 64.97 82.6014 64.73C82.208 64.49 81.898 64.1533 81.6714 63.72C81.4447 63.2867 81.3314 62.7933 81.3314 62.24ZM85.9714 62.25C85.9714 61.8367 85.888 61.4767 85.7214 61.17C85.5547 60.8633 85.328 60.63 85.0414 60.47C84.7614 60.3033 84.4514 60.22 84.1114 60.22C83.7714 60.22 83.4614 60.3 83.1814 60.46C82.9014 60.62 82.678 60.8533 82.5114 61.16C82.3447 61.4667 82.2614 61.8267 82.2614 62.24C82.2614 62.66 82.3447 63.0267 82.5114 63.34C82.678 63.6467 82.9014 63.8833 83.1814 64.05C83.4614 64.21 83.7714 64.29 84.1114 64.29C84.4514 64.29 84.7614 64.21 85.0414 64.05C85.328 63.8833 85.5547 63.6467 85.7214 63.34C85.888 63.0267 85.9714 62.6633 85.9714 62.25ZM20.3085 76.424V79.952C20.3085 80.448 20.4285 80.816 20.6685 81.056C20.9138 81.296 21.2525 81.416 21.6845 81.416C22.1111 81.416 22.4445 81.296 22.6845 81.056C22.9298 80.816 23.0525 80.448 23.0525 79.952V76.424H23.7805V79.944C23.7805 80.408 23.6871 80.8 23.5005 81.12C23.3138 81.4347 23.0605 81.6693 22.7405 81.824C22.4258 81.9787 22.0711 82.056 21.6765 82.056C21.2818 82.056 20.9245 81.9787 20.6045 81.824C20.2898 81.6693 20.0391 81.4347 19.8525 81.12C19.6711 80.8 19.5805 80.408 19.5805 79.944V76.424H20.3085ZM25.7229 76.424V82H24.9949V76.424H25.7229ZM31.8165 74.464L29.6245 83.36H28.9045L31.0885 74.464H31.8165ZM33.6132 76.424V79.952C33.6132 80.448 33.7332 80.816 33.9732 81.056C34.2185 81.296 34.5572 81.416 34.9892 81.416C35.4158 81.416 35.7492 81.296 35.9892 81.056C36.2345 80.816 36.3572 80.448 36.3572 79.952V76.424H37.0852V79.944C37.0852 80.408 36.9918 80.8 36.8052 81.12C36.6185 81.4347 36.3652 81.6693 36.0452 81.824C35.7305 81.9787 35.3758 82.056 34.9812 82.056C34.5865 82.056 34.2292 81.9787 33.9092 81.824C33.5945 81.6693 33.3438 81.4347 33.1572 81.12C32.9758 80.8 32.8852 80.408 32.8852 79.944V76.424H33.6132ZM40.5796 79.216L42.2916 82H41.4676L40.1316 79.824L38.8596 82H38.0516L39.7556 79.216L38.0436 76.424H38.8596L40.2036 78.608L41.4836 76.424H42.2996L40.5796 79.216ZM47.1372 76.424C47.7452 76.424 48.2705 76.5387 48.7132 76.768C49.1612 76.992 49.5025 77.3147 49.7372 77.736C49.9772 78.1573 50.0972 78.6533 50.0972 79.224C50.0972 79.7947 49.9772 80.2907 49.7372 80.712C49.5025 81.128 49.1612 81.448 48.7132 81.672C48.2705 81.8907 47.7452 82 47.1372 82H45.4012V76.424H47.1372ZM47.1372 81.4C47.8572 81.4 48.4065 81.2107 48.7852 80.832C49.1638 80.448 49.3532 79.912 49.3532 79.224C49.3532 78.5307 49.1612 77.9893 48.7772 77.6C48.3985 77.2107 47.8518 77.016 47.1372 77.016H46.1292V81.4H47.1372ZM55.0574 79.64C55.0574 79.7787 55.0494 79.9253 55.0334 80.08H51.5294C51.5561 80.512 51.7027 80.8507 51.9694 81.096C52.2414 81.336 52.5694 81.456 52.9534 81.456C53.2681 81.456 53.5294 81.384 53.7374 81.24C53.9507 81.0907 54.1001 80.8933 54.1854 80.648H54.9694C54.8521 81.0693 54.6174 81.4133 54.2654 81.68C53.9134 81.9413 53.4761 82.072 52.9534 82.072C52.5374 82.072 52.1641 81.9787 51.8334 81.792C51.5081 81.6053 51.2521 81.3413 51.0654 81C50.8787 80.6533 50.7854 80.2533 50.7854 79.8C50.7854 79.3467 50.8761 78.9493 51.0574 78.608C51.2387 78.2667 51.4921 78.0053 51.8174 77.824C52.1481 77.6373 52.5267 77.544 52.9534 77.544C53.3694 77.544 53.7374 77.6347 54.0574 77.816C54.3774 77.9973 54.6227 78.248 54.7934 78.568C54.9694 78.8827 55.0574 79.24 55.0574 79.64ZM54.3054 79.488C54.3054 79.2107 54.2441 78.9733 54.1214 78.776C53.9987 78.5733 53.8307 78.4213 53.6174 78.32C53.4094 78.2133 53.1774 78.16 52.9214 78.16C52.5534 78.16 52.2387 78.2773 51.9774 78.512C51.7214 78.7467 51.5747 79.072 51.5374 79.488H54.3054ZM57.5703 82.072C57.2343 82.072 56.933 82.016 56.6663 81.904C56.3997 81.7867 56.189 81.6267 56.0343 81.424C55.8797 81.216 55.7943 80.9787 55.7783 80.712H56.5303C56.5517 80.9307 56.653 81.1093 56.8343 81.248C57.021 81.3867 57.2637 81.456 57.5623 81.456C57.8397 81.456 58.0583 81.3947 58.2183 81.272C58.3783 81.1493 58.4583 80.9947 58.4583 80.808C58.4583 80.616 58.373 80.4747 58.2023 80.384C58.0317 80.288 57.7677 80.1947 57.4103 80.104C57.085 80.0187 56.8183 79.9333 56.6103 79.848C56.4077 79.7573 56.2317 79.6267 56.0823 79.456C55.9383 79.28 55.8663 79.0507 55.8663 78.768C55.8663 78.544 55.933 78.3387 56.0663 78.152C56.1997 77.9653 56.389 77.8187 56.6343 77.712C56.8797 77.6 57.1597 77.544 57.4743 77.544C57.9597 77.544 58.3517 77.6667 58.6503 77.912C58.949 78.1573 59.109 78.4933 59.1303 78.92H58.4023C58.3863 78.6907 58.293 78.5067 58.1223 78.368C57.957 78.2293 57.733 78.16 57.4503 78.16C57.189 78.16 56.981 78.216 56.8263 78.328C56.6717 78.44 56.5943 78.5867 56.5943 78.768C56.5943 78.912 56.6397 79.032 56.7303 79.128C56.8263 79.2187 56.9437 79.2933 57.0823 79.352C57.2263 79.4053 57.4237 79.4667 57.6743 79.536C57.989 79.6213 58.245 79.7067 58.4423 79.792C58.6397 79.872 58.8077 79.9947 58.9463 80.16C59.0903 80.3253 59.165 80.5413 59.1703 80.808C59.1703 81.048 59.1037 81.264 58.9703 81.456C58.837 81.648 58.6477 81.8 58.4023 81.912C58.1623 82.0187 57.885 82.072 57.5703 82.072ZM60.574 76.904C60.4354 76.904 60.318 76.856 60.222 76.76C60.126 76.664 60.078 76.5467 60.078 76.408C60.078 76.2693 60.126 76.152 60.222 76.056C60.318 75.96 60.4354 75.912 60.574 75.912C60.7074 75.912 60.8194 75.96 60.91 76.056C61.006 76.152 61.054 76.2693 61.054 76.408C61.054 76.5467 61.006 76.664 60.91 76.76C60.8194 76.856 60.7074 76.904 60.574 76.904ZM60.926 77.616V82H60.198V77.616H60.926ZM63.9748 77.544C64.3534 77.544 64.6841 77.6267 64.9668 77.792C65.2548 77.9573 65.4681 78.1653 65.6068 78.416V77.616H66.3428V82.096C66.3428 82.496 66.2574 82.8507 66.0868 83.16C65.9161 83.4747 65.6708 83.72 65.3508 83.896C65.0361 84.072 64.6681 84.16 64.2468 84.16C63.6708 84.16 63.1908 84.024 62.8068 83.752C62.4228 83.48 62.1961 83.1093 62.1268 82.64H62.8468C62.9268 82.9067 63.0921 83.12 63.3428 83.28C63.5934 83.4453 63.8948 83.528 64.2468 83.528C64.6468 83.528 64.9721 83.4027 65.2228 83.152C65.4788 82.9013 65.6068 82.5493 65.6068 82.096V81.176C65.4628 81.432 65.2494 81.6453 64.9668 81.816C64.6841 81.9867 64.3534 82.072 63.9748 82.072C63.5854 82.072 63.2308 81.976 62.9108 81.784C62.5961 81.592 62.3481 81.3227 62.1668 80.976C61.9854 80.6293 61.8948 80.2347 61.8948 79.792C61.8948 79.344 61.9854 78.952 62.1668 78.616C62.3481 78.2747 62.5961 78.0107 62.9108 77.824C63.2308 77.6373 63.5854 77.544 63.9748 77.544ZM65.6068 79.8C65.6068 79.4693 65.5401 79.1813 65.4068 78.936C65.2734 78.6907 65.0921 78.504 64.8628 78.376C64.6388 78.2427 64.3908 78.176 64.1188 78.176C63.8468 78.176 63.5988 78.24 63.3748 78.368C63.1508 78.496 62.9721 78.6827 62.8388 78.928C62.7054 79.1733 62.6388 79.4613 62.6388 79.792C62.6388 80.128 62.7054 80.4213 62.8388 80.672C62.9721 80.9173 63.1508 81.1067 63.3748 81.24C63.5988 81.368 63.8468 81.432 64.1188 81.432C64.3908 81.432 64.6388 81.368 64.8628 81.24C65.0921 81.1067 65.2734 80.9173 65.4068 80.672C65.5401 80.4213 65.6068 80.1307 65.6068 79.8ZM69.709 77.536C70.2424 77.536 70.6744 77.6987 71.005 78.024C71.3357 78.344 71.501 78.808 71.501 79.416V82H70.781V79.52C70.781 79.0827 70.6717 78.7493 70.453 78.52C70.2344 78.2853 69.9357 78.168 69.557 78.168C69.173 78.168 68.8664 78.288 68.637 78.528C68.413 78.768 68.301 79.1173 68.301 79.576V82H67.573V77.616H68.301V78.24C68.445 78.016 68.6397 77.8427 68.885 77.72C69.1357 77.5973 69.4104 77.536 69.709 77.536ZM76.6902 79.64C76.6902 79.7787 76.6822 79.9253 76.6662 80.08H73.1622C73.1889 80.512 73.3356 80.8507 73.6022 81.096C73.8742 81.336 74.2022 81.456 74.5862 81.456C74.9009 81.456 75.1622 81.384 75.3702 81.24C75.5836 81.0907 75.7329 80.8933 75.8182 80.648H76.6022C76.4849 81.0693 76.2502 81.4133 75.8982 81.68C75.5462 81.9413 75.1089 82.072 74.5862 82.072C74.1702 82.072 73.7969 81.9787 73.4662 81.792C73.1409 81.6053 72.8849 81.3413 72.6982 81C72.5116 80.6533 72.4182 80.2533 72.4182 79.8C72.4182 79.3467 72.5089 78.9493 72.6902 78.608C72.8716 78.2667 73.1249 78.0053 73.4502 77.824C73.7809 77.6373 74.1596 77.544 74.5862 77.544C75.0022 77.544 75.3702 77.6347 75.6902 77.816C76.0102 77.9973 76.2556 78.248 76.4262 78.568C76.6022 78.8827 76.6902 79.24 76.6902 79.64ZM75.9382 79.488C75.9382 79.2107 75.8769 78.9733 75.7542 78.776C75.6316 78.5733 75.4636 78.4213 75.2502 78.32C75.0422 78.2133 74.8102 78.16 74.5542 78.16C74.1862 78.16 73.8716 78.2773 73.6102 78.512C73.3542 78.7467 73.2076 79.072 73.1702 79.488H75.9382ZM78.3792 78.328C78.5072 78.0773 78.6885 77.8827 78.9232 77.744C79.1632 77.6053 79.4538 77.536 79.7952 77.536V78.288H79.6032C78.7872 78.288 78.3792 78.7307 78.3792 79.616V82H77.6512V77.616H78.3792V78.328Z" fill="black"/>
<path d="M12 48H88" stroke="black" stroke-width="0.25" stroke-linecap="round"/>
</svg>
